<svg preserveAspectRatio="none" width="100%" height="100%" overflow="visible" style="display: block;" viewBox="0 0 40 40" fill="none" xmlns="http://www.w3.org/2000/svg">
<g id="uil:english-to-chinese">
<path id="Vector" d="M28.3696 19.4163C28.7453 19.4163 29.1059 19.5658 29.3716 19.8313C29.6373 20.097 29.7866 20.4576 29.7866 20.8333V21.9163H35.0366C35.4123 21.9163 35.7729 22.0657 36.0386 22.3313C36.3042 22.597 36.4536 22.9576 36.4536 23.3333C36.4536 23.709 36.3043 24.0696 36.0386 24.3352C35.7729 24.6009 35.4123 24.7503 35.0366 24.7503H33.5317L33.4937 24.9544C33.0599 27.317 32.0387 29.5334 30.5239 31.3977L30.3569 31.6038L30.5728 31.7581C31.8229 32.6513 33.2407 33.2832 34.7407 33.6155H34.7417C35.1086 33.6964 35.428 33.9201 35.6304 34.2366C35.8328 34.5533 35.9016 34.9379 35.8208 35.305C35.74 35.6719 35.5163 35.9922 35.1997 36.1946C34.8832 36.3968 34.4992 36.4647 34.1323 36.3841H34.1314C32.0638 35.9315 30.1227 35.0243 28.4497 33.7278L28.2964 33.6087L28.1431 33.7278C26.5883 34.9426 24.7966 35.8167 22.8853 36.2942L22.5015 36.3841C22.1344 36.4642 21.7503 36.3955 21.4341 36.1927C21.1179 35.9898 20.8952 35.6691 20.8149 35.302C20.7349 34.9353 20.8038 34.5517 21.0064 34.2356C21.2092 33.9193 21.5299 33.6957 21.897 33.6155H21.898C23.3893 33.2786 24.7969 32.6414 26.0337 31.7425L26.2466 31.5872L26.0806 31.3831C25.4768 30.6366 24.9501 29.8302 24.5083 28.9778L24.5054 28.9729L24.4439 28.845C24.3884 28.7149 24.352 28.5771 24.3374 28.4358C24.3179 28.2473 24.3366 28.0565 24.3921 27.8753C24.4476 27.6941 24.539 27.5255 24.6606 27.3802C24.7823 27.2349 24.9325 27.116 25.1011 27.0296C25.2697 26.9432 25.4541 26.8912 25.6431 26.8772C25.8319 26.8634 26.0214 26.8879 26.2007 26.9485C26.3802 27.0093 26.5463 27.1049 26.688 27.2308C26.7942 27.3251 26.8852 27.4349 26.9585 27.5559L27.0259 27.6809L27.0298 27.6897C27.3382 28.2782 27.6981 28.8385 28.104 29.3645L28.3003 29.6194L28.4985 29.3655C29.4906 28.0938 30.2026 26.6264 30.5864 25.0599L30.6616 24.7503H21.7036C21.328 24.7503 20.9673 24.6008 20.7017 24.3352C20.436 24.0696 20.2866 23.709 20.2866 23.3333C20.2866 22.9576 20.436 22.597 20.7017 22.3313C20.9673 22.0658 21.328 21.9163 21.7036 21.9163H26.9536V20.8333C26.9536 20.4576 27.103 20.097 27.3687 19.8313C27.6342 19.566 27.9942 19.4164 28.3696 19.4163ZM11.7036 21.9163C12.0791 21.9164 12.439 22.066 12.7046 22.3313C12.9703 22.597 13.1196 22.9576 13.1196 23.3333V25.0003C13.1197 25.5085 13.3218 25.9964 13.6812 26.3558C14.0406 26.7151 14.5284 26.9163 15.0366 26.9163H16.7036C17.0791 26.9164 17.439 27.066 17.7046 27.3313C17.9703 27.597 18.1196 27.9576 18.1196 28.3333C18.1196 28.709 17.9703 29.0696 17.7046 29.3352C17.439 29.6007 17.0791 29.7502 16.7036 29.7503H15.0366C13.7773 29.749 12.5697 29.2481 11.6792 28.3577C10.7886 27.4671 10.2879 26.2588 10.2866 24.9993V23.3333C10.2866 22.9576 10.436 22.597 10.7017 22.3313C10.9673 22.0658 11.328 21.9163 11.7036 21.9163ZM11.7036 3.58134C12.4956 3.5814 13.2649 3.84594 13.8892 4.33329C14.5134 4.82077 14.9569 5.5034 15.1489 6.27177V6.27275L18.0767 17.9866V17.9876C18.1649 18.3509 18.1059 18.734 17.9126 19.054C17.7192 19.3741 17.4072 19.6047 17.0444 19.6956C16.6817 19.7864 16.2975 19.7304 15.9761 19.5393C15.6555 19.3486 15.4234 19.039 15.3296 18.678L14.396 14.9397L14.3481 14.7503H9.05811L9.01123 14.9397L8.07764 18.6761C7.98414 19.038 7.75151 19.3483 7.43018 19.5393C7.10872 19.7305 6.72458 19.7865 6.36182 19.6956C5.99916 19.6047 5.68701 19.374 5.49366 19.054C5.30062 18.7343 5.24174 18.3515 5.32959 17.9886L8.25733 6.27275V6.27177C8.44937 5.50336 8.89284 4.82079 9.51709 4.33329C10.1414 3.84575 10.9115 3.58134 11.7036 3.58134ZM23.3696 8.58329H25.0366C26.296 8.5846 27.5035 9.08537 28.394 9.97587C29.2845 10.8664 29.7853 12.0739 29.7866 13.3333V15.0003C29.7865 15.3758 29.6371 15.7357 29.3716 16.0013C29.1059 16.2669 28.7454 16.4163 28.3696 16.4163C27.994 16.4162 27.6342 16.2669 27.3687 16.0013C27.1031 15.7357 26.9537 15.3759 26.9536 15.0003V13.3333C26.9536 12.825 26.7515 12.3373 26.3921 11.9778C26.0327 11.6184 25.5449 11.4163 25.0366 11.4163H23.3696C22.994 11.4162 22.6342 11.2669 22.3687 11.0013C22.1031 10.7357 21.9537 10.3759 21.9536 10.0003C21.9536 9.62456 22.103 9.26401 22.3687 8.99833C22.6342 8.73284 22.9941 8.58339 23.3696 8.58329ZM11.7036 6.45927C11.5546 6.45927 11.4083 6.50454 11.2856 6.58915C11.1631 6.67375 11.069 6.79373 11.0161 6.9329L11.0112 6.94657L11.0073 6.96122L9.84424 11.6058L9.76612 11.9163H13.6382L13.561 11.6058L12.3989 6.96122L12.396 6.94657L12.3901 6.9329L12.3433 6.83232C12.2887 6.73582 12.2126 6.65264 12.1206 6.58915C11.998 6.50459 11.8526 6.45933 11.7036 6.45927Z" fill="var(--fill-0, #D88D1C)" stroke="var(--stroke-0, #F9F3EC)" stroke-width="0.5"/>
</g>
</svg>
